<?xml version="1.0" encoding="utf-8"?>
<!-- Generator: Adobe Illustrator 16.0.0, SVG Export Plug-In . SVG Version: 6.00 Build 0)  -->
<!DOCTYPE svg PUBLIC "-//W3C//DTD SVG 1.1//EN" "http://www.w3.org/Graphics/SVG/1.1/DTD/svg11.dtd">
<svg version="1.1" id="Calque_1" xmlns="http://www.w3.org/2000/svg" xmlns:xlink="http://www.w3.org/1999/xlink" x="0px" y="0px"
	 width="595.281px" height="595.281px" viewBox="0 123.305 595.281 595.281" enable-background="new 0 123.305 595.281 595.281"
	 xml:space="preserve">
<path fill="#3D518C" d="M87.199,718.585h194.164V506.982h-69.759v-69.76h69.759v-87.199c0-48.082,39.117-87.199,87.199-87.199
	h87.199v69.759h-69.76c-19.232,0-34.879,15.646-34.879,34.88v69.759h101.492l-11.627,69.76h-89.865v211.604h156.959
	c48.082,0,87.199-39.117,87.199-87.199V210.504c0-48.083-39.117-87.2-87.199-87.2H87.199C39.117,123.305,0,162.422,0,210.504
	v420.882C0,679.468,39.117,718.585,87.199,718.585z M34.88,210.504c0-28.849,23.471-52.32,52.319-52.32h420.882
	c28.848,0,52.318,23.471,52.318,52.32v420.882c0,28.848-23.471,52.318-52.318,52.318h-122.08V541.861h84.533l23.254-139.518H386.001
	v-34.88h104.641V227.944h-122.08c-67.316,0-122.079,54.763-122.079,122.079v52.32h-69.76v139.518h69.76v141.844H87.199
	c-28.848,0-52.319-23.471-52.319-52.318V210.504z"/>
</svg>
