<?xml version="1.0" encoding="utf-8"?>
<!-- Generator: Adobe Illustrator 16.0.0, SVG Export Plug-In . SVG Version: 6.00 Build 0)  -->
<!DOCTYPE svg PUBLIC "-//W3C//DTD SVG 1.1//EN" "http://www.w3.org/Graphics/SVG/1.1/DTD/svg11.dtd">
<svg version="1.1" id="Calque_1" xmlns="http://www.w3.org/2000/svg" xmlns:xlink="http://www.w3.org/1999/xlink" x="0px" y="0px"
	 width="595.281px" height="595.281px" viewBox="0 123.305 595.281 595.281" enable-background="new 0 123.305 595.281 595.281"
	 xml:space="preserve">
<path fill="#3D518C" d="M87.199,718.585h420.882c48.082,0,87.199-39.117,87.199-87.199V210.504c0-48.083-39.117-87.2-87.199-87.2
	H87.199C39.117,123.305,0,162.422,0,210.504v420.882C0,679.468,39.117,718.585,87.199,718.585z M34.88,210.504
	c0-28.849,23.471-52.32,52.319-52.32h420.882c28.848,0,52.318,23.471,52.318,52.32v420.882c0,28.848-23.471,52.318-52.318,52.318
	H87.199c-28.848,0-52.319-23.471-52.319-52.318V210.504z"/>
<path fill="#3D518C" d="M297.64,577.904c86.545,0,156.959-70.414,156.959-156.958c0-86.545-70.414-156.959-156.959-156.959
	c-86.545,0-156.958,70.414-156.958,156.959C140.682,507.49,211.095,577.904,297.64,577.904z M297.64,298.866
	c67.316,0,122.078,54.763,122.078,122.079c0,67.316-54.762,122.08-122.078,122.08c-67.316,0-122.079-54.764-122.079-122.08
	C175.561,353.629,230.324,298.866,297.64,298.866z"/>
<path fill="#3D518C" d="M472.039,298.866c28.848,0,52.32-23.471,52.32-52.32c0-28.848-23.473-52.319-52.32-52.319
	s-52.32,23.471-52.32,52.319C419.718,275.395,443.191,298.866,472.039,298.866z M472.039,229.106c9.615,0,17.439,7.826,17.439,17.44
	c0,9.615-7.824,17.44-17.439,17.44s-17.439-7.825-17.439-17.44C454.599,236.932,462.423,229.106,472.039,229.106z"/>
</svg>
