<?xml version="1.0" encoding="utf-8"?>
<!-- Generator: Adobe Illustrator 16.0.0, SVG Export Plug-In . SVG Version: 6.00 Build 0)  -->
<!DOCTYPE svg PUBLIC "-//W3C//DTD SVG 1.1//EN" "http://www.w3.org/Graphics/SVG/1.1/DTD/svg11.dtd">
<svg version="1.1" id="Calque_1" xmlns="http://www.w3.org/2000/svg" xmlns:xlink="http://www.w3.org/1999/xlink" x="0px" y="0px"
	 width="512px" height="512px" viewBox="0 0 512 512" enable-background="new 0 0 512 512" xml:space="preserve">
<path fill="#3D518C" d="M151,181H91c-8.285,0-15,6.715-15,15v240c0,8.285,6.715,15,15,15h60c8.285,0,15-6.715,15-15V196
	C166,187.715,159.285,181,151,181z M136,421h-30V211h30V421z"/>
<path fill="#3D518C" d="M121,61c-24.813,0-45,20.188-45,45s20.188,45,45,45s45-20.188,45-45S145.813,61,121,61z M121,121
	c-8.27,0-15-6.73-15-15s6.73-15,15-15s15,6.73,15,15S129.27,121,121,121z"/>
<path fill="#3D518C" d="M355.641,181.926c-24.508-3.977-49.594,0.688-69.738,12.34C285.039,186.797,278.695,181,271,181h-60
	c-8.285,0-15,6.715-15,15v240c0,8.285,6.715,15,15,15h60c8.285,0,15-6.715,15-15V301c0-16.543,13.457-30,30-30s30,13.457,30,30v135
	c0,8.285,6.715,15,15,15h60c8.285,0,15-6.715,15-15V274.539C436,229.742,404.34,189.828,355.641,181.926z M406,421h-30V301
	c0-33.086-26.914-60-60-60s-60,26.914-60,60v120h-30V211h30v15c0,6.066,3.656,11.535,9.262,13.859
	c5.602,2.32,12.055,1.035,16.344-3.254l6.996-6.996c14.727-14.723,39.156-21.816,62.234-18.07c35.309,5.73,55.164,33.945,55.164,63
	V421z"/>
<path fill="#3D518C" d="M436,0H76C34.516,0,0,34.543,0,76v360c0,41.484,34.543,76,76,76h360c41.484,0,76-34.543,76-76V76
	C512,34.516,477.457,0,436,0z M482,436c0,24.934-21.066,46-46,46H76c-24.934,0-46-21.066-46-46V76c0-24.934,21.066-46,46-46h360
	c24.934,0,46,21.066,46,46V436z"/>
</svg>
