<?xml version="1.0" encoding="utf-8"?>
<!-- Generator: Adobe Illustrator 16.0.0, SVG Export Plug-In . SVG Version: 6.00 Build 0)  -->
<!DOCTYPE svg PUBLIC "-//W3C//DTD SVG 1.1//EN" "http://www.w3.org/Graphics/SVG/1.1/DTD/svg11.dtd">
<svg version="1.1" id="Calque_1" xmlns="http://www.w3.org/2000/svg" xmlns:xlink="http://www.w3.org/1999/xlink" x="0px" y="0px"
	 width="512px" height="512px" viewBox="0 0 512 512" enable-background="new 0 0 512 512" xml:space="preserve">
<path fill="#3D518C" d="M386,53c0,5.523-4.477,10-10,10s-10-4.477-10-10s4.477-10,10-10S386,47.477,386,53z"/>
<path fill="#3D518C" d="M408.676,184.559c-1.117,0.051-2.195,0.078-3.285,0.094l6.066-16.523
	c2.898-7.891-4.688-15.648-12.645-12.902c-14.012,4.828-20.168,7.875-30.277,10.5c-26.434-23.758-65.453-24.789-93.324-7.656
	c-22.875,14.063-35.324,38.359-31.148,66.973c-44.785-6.141-81.414-26.922-111.668-63.262c-2.121-2.547-5.363-3.879-8.66-3.555
	s-6.219,2.258-7.805,5.168c-12.574,23.074-13.355,50.75-0.41,74.25c-5.078,0.168-9.281,4.141-9.645,9.289
	c-1.219,17.238,6.59,41.676,25.961,58.453c-3.27,2.586-4.617,6.961-3.293,10.973c6.703,20.344,20.621,36.074,38.688,44.824
	c-18.051,7.656-32.617,12.543-56.566,20.418c-3.785,1.242-6.469,4.617-6.832,8.586s1.664,7.777,5.16,9.688
	c7.719,4.219,34.984,18.309,61.938,22.535c59.637,9.355,126.426,1.832,171.473-38.738c38.234-34.43,50.719-83.617,48.105-134.805
	c-0.391-7.73,1.723-15.098,5.957-20.746c1.859-2.48-7.215,9.617,20.73-27.676C422.129,193.691,417.059,184.211,408.676,184.559z
	 M380.457,216.133c-7.023,9.375-10.551,21.355-9.926,33.75c2.648,51.723-11.32,91.738-41.512,118.93
	c-34.949,31.473-91.445,43.805-154.992,33.836c-11.586-1.816-23.563-5.883-33.477-9.945c20.07-6.906,35.582-13.066,60.637-24.926
	c9.301-4.402,6.629-18.363-3.641-19.016c-18.496-1.184-33.895-10.145-43.359-24.695c5.023-0.293,9.871-1.109,14.695-2.453
	c9.871-2.754,9.668-16.906-0.305-19.348c-23.961-5.867-36.898-23.668-41.199-39.664c3.75,1.016,8.102,1.73,15.176,2.43
	c9.957,0.977,14.996-11.703,7.133-17.836c-19.617-15.305-27.48-38.289-21.719-60.383c34.566,35.902,77.461,55.914,127.738,59.543
	c6.969,0.48,12.863-5.688,9.883-16.117c-9.305-32.891,10.949-49.512,20.09-55.129c18.93-11.637,49.047-13.328,69.957,5.918
	c4.527,4.207,10.688,5.859,16.461,4.43c4.996-1.242,9.125-2.555,13.148-3.977l-3.535,9.621c-2.133,5.809,1.473,12.145,7.551,13.281
	C386.934,207.488,384.047,211.34,380.457,216.133z"/>
<path fill="#3D518C" d="M462,0H50C22.43,0,0,22.43,0,50v412c0,27.57,22.43,50,50,50h412c27.57,0,50-22.43,50-50V50
	C512,22.43,489.57,0,462,0z M492,462c0,16.543-13.457,30-30,30H50c-16.543,0-30-13.457-30-30V50c0-16.543,13.457-30,30-30h412
	c16.543,0,30,13.457,30,30V462z"/>
<path fill="#3D518C" d="M136,63h200c5.523,0,10-4.477,10-10s-4.477-10-10-10H136c-5.523,0-10,4.477-10,10S130.477,63,136,63z"/>
</svg>
