<?xml version="1.0" encoding="utf-8"?>
<!-- Generator: Adobe Illustrator 16.0.0, SVG Export Plug-In . SVG Version: 6.00 Build 0)  -->
<!DOCTYPE svg PUBLIC "-//W3C//DTD SVG 1.1//EN" "http://www.w3.org/Graphics/SVG/1.1/DTD/svg11.dtd">
<svg version="1.1" id="Calque_1" xmlns="http://www.w3.org/2000/svg" xmlns:xlink="http://www.w3.org/1999/xlink" x="0px" y="0px"
	 width="365.882px" height="143.531px" viewBox="0 0 365.882 143.531" enable-background="new 0 0 365.882 143.531"
	 xml:space="preserve">
<path fill="#C41D17" stroke="#000000" stroke-miterlimit="10" d="M38.071,92.941h-6.12L17.119,45.277h5.688l12.24,40.032
	l12.816-40.032h6.192l12.816,40.032l12.24-40.032h5.688L69.967,92.941h-6.12L50.958,52.909L38.071,92.941z"/>
<path fill="#C41D17" stroke="#000000" stroke-miterlimit="10" d="M115.831,87.181c-2.88,4.225-7.176,6.336-12.888,6.336
	c-5.184,0-9.408-1.801-12.672-5.4c-3.168-3.551-4.752-7.943-4.752-13.176c0-5.231,1.584-9.623,4.752-13.176
	c3.264-3.6,7.607-5.4,13.032-5.4c5.424,0,9.6,2.137,12.528,6.408v-5.832h5.4v36h-5.4V87.181z M103.663,88.621
	c3.888,0,6.959-1.343,9.216-4.031c2.16-2.543,3.24-5.76,3.24-9.648c0-3.888-1.08-7.103-3.24-9.648
	c-2.257-2.688-5.328-4.032-9.216-4.032c-3.84,0-6.96,1.345-9.36,4.032c-2.257,2.545-3.384,5.76-3.384,9.648
	c0,3.889,1.127,7.104,3.384,9.648C96.703,87.278,99.822,88.621,103.663,88.621z"/>
<path fill="#C41D17" stroke="#000000" stroke-miterlimit="10" d="M135.99,92.941h-5.4v-50.4h5.4V92.941z"/>
<path fill="#C41D17" stroke="#000000" stroke-miterlimit="10" d="M161.189,71.125l15.552,21.816h-6.624l-12.6-18.072l-6.768,6.696
	v11.376h-5.4v-50.4h5.4v32.255l17.352-17.855h7.56L161.189,71.125z"/>
<path fill="#C41D17" stroke="#000000" stroke-miterlimit="10" d="M224.261,92.941h-5.977l-5.832-13.824h-23.615l-5.833,13.824
	h-5.976l20.232-47.664h6.767L224.261,92.941z M210.364,74.149l-9.719-23.256l-9.72,23.256H210.364z"/>
<path fill="#C41D17" stroke="#000000" stroke-miterlimit="10" d="M246.488,55.744l0.368,30.103l-5.885,1.923l-21.927-30.708
	l5.475-1.789l17.314,25.171l-0.41-30.695l5.611-1.833L264.83,72.93l-0.891-30.538l5.475-1.789l0.438,37.73l-5.888,1.922
	L246.488,55.744z"/>
<path fill="#C41D17" stroke="#000000" stroke-miterlimit="10" d="M309.437,87.181c-2.881,4.225-7.176,6.336-12.889,6.336
	c-5.184,0-9.407-1.801-12.672-5.4c-3.168-3.551-4.752-7.943-4.752-13.176c0-5.231,1.584-9.623,4.752-13.176
	c3.265-3.6,7.607-5.4,13.033-5.4c5.422,0,9.6,2.137,12.527,6.408v-5.832h5.398v36h-5.398V87.181L309.437,87.181z M297.269,88.621
	c3.889,0,6.959-1.343,9.217-4.031c2.16-2.543,3.238-5.76,3.238-9.648c0-3.888-1.078-7.103-3.238-9.648
	c-2.258-2.688-5.328-4.032-9.217-4.032c-3.841,0-6.96,1.345-9.359,4.032c-2.257,2.545-3.385,5.76-3.385,9.648
	c0,3.889,1.128,7.104,3.385,9.648C290.309,87.278,293.428,88.621,297.269,88.621z"/>
<path fill="#C41D17" stroke="#000000" stroke-miterlimit="10" d="M333.771,107.197h-5.832l6.553-14.76l-14.689-35.496h5.977
	l11.594,29.52l11.807-29.52h5.904L333.771,107.197z"/>
<g>
	<path fill="#FCFAFA" stroke="#000000" stroke-miterlimit="10" d="M225.684,107.796c1.433-0.736,2.905-1.405,4.29-2.226
		c2.936-1.739,5.801-3.594,8.738-5.327c1.506-0.89,3.197-1.479,4.636-2.455c2.104-1.426,4.444-2.283,6.726-3.318
		c1.697-0.771,3.252-1.85,4.907-2.723c2.632-1.387,5.304-2.695,7.94-4.072c2.252-1.174,4.477-2.398,6.715-3.594
		c0.55-0.293,1.115-0.556,1.81-0.656c-0.315,0.296-0.614,0.607-0.946,0.884c-3.299,2.761-6.787,5.246-10.506,7.413
		c-1.39,0.809-2.675,1.795-4.05,2.63c-1.043,0.633-2.168,1.129-3.231,1.731c-1.898,1.078-3.76,2.228-5.68,3.271
		c-0.744,0.406-1.604,0.6-2.4,0.912c-1.394,0.545-2.785,1.089-4.162,1.668c-4.879,2.055-9.752,4.127-14.627,6.191
		C225.791,108.019,225.737,107.908,225.684,107.796z"/>
	<path fill="#FCFAFA" stroke="#000000" stroke-miterlimit="10" d="M234.458,110.417c1.039-0.502,2.102-0.961,3.111-1.519
		c1.996-1.099,3.907-2.362,5.959-3.34c1.77-0.845,3.165-2.252,5.254-2.697c1.773-0.377,3.365-1.694,4.983-2.685
		c1.856-1.131,3.528-2.649,5.502-3.469c2.353-0.979,4.075-2.888,6.521-3.727c2.379-0.816,4.574-2.165,7.008-3.107
		c-1.26,1.047-2.502,2.117-3.787,3.137c-1.202,0.957-2.428,1.892-3.686,2.775c-0.994,0.698-2.021,1.358-3.086,1.941
		c-2.443,1.338-4.924,2.604-7.373,3.932c-1.262,0.684-2.438,1.537-3.736,2.131c-2.021,0.926-4.264,1.441-6.135,2.586
		c-3.273,2.004-7.158,2.35-10.375,4.389C234.565,110.65,234.512,110.535,234.458,110.417z"/>
	<path fill="#FCFAFA" stroke="#000000" stroke-miterlimit="10" d="M271.916,96.328c-9.08,8.34-19.27,14.168-30.178,17.766
		C251.417,108.396,261.533,102.441,271.916,96.328z"/>
	<path fill="#FCFAFA" stroke="#000000" stroke-miterlimit="10" d="M261.485,81.399c-9.125,8.046-19.526,13.837-30.998,17.813
		c0.164-0.113,0.32-0.241,0.494-0.336c3.433-1.877,6.886-3.717,10.291-5.643c1.871-1.059,3.638-2.298,5.49-3.391
		c2.247-1.323,4.559-2.541,6.8-3.875c1.268-0.752,2.412-1.717,3.688-2.453C258.615,82.729,260.069,82.097,261.485,81.399z"/>
</g>
<g>
	<path display="none" fill="#C41D17" stroke="#000000" stroke-miterlimit="10" d="M222.673,108.276
		c2.841,3.97,5.682,7.938,8.521,11.908c-9.948,7.116-19.896,14.233-29.843,21.351c-5.364-7.498-10.729-14.996-16.092-22.492
		c9.949-7.117,19.896-14.233,29.843-21.351c2.349,3.283,4.698,6.565,7.048,9.849c-0.251,0.154-0.52,0.287-0.748,0.467
		c-0.633,0.494-1.227,1.043-1.878,1.512c-1.392,1.003-2.812,1.968-4.252,2.973c0.19,0.036,0.421,0.079,0.647,0.123
		c-0.11,0.342,0.094,0.412,0.359,0.402c-0.035,0.102-0.074,0.206-0.111,0.313c0.158,0.051,0.287,0.094,0.367,0.119
		c-0.064,0.209-0.123,0.393-0.18,0.575c0.42-0.276,0.745-0.599,1.094-0.894c1.164-0.992,2.366-1.946,3.502-2.973
		C221.578,109.589,222.102,108.908,222.673,108.276z M200.841,120.977c-0.022,0.006-0.049,0.011-0.073,0.017
		c-0.146-0.516-0.304-1.027-0.431-1.548c-0.145-0.596-0.295-1.196-0.75-1.631c-0.371-0.351-0.78-0.673-1.215-0.94
		c-1.938-1.193-3.654-0.885-5.156,0.521c-1.215,1.14-1.815,2.653-1.766,4.364c0.053,1.802,0.602,3.357,2.207,4.384
		c0.19,0.121,0.338,0.304,0.506,0.459c-0.02,0.021-0.041,0.04-0.061,0.06c-0.234-0.137-0.469-0.273-0.771-0.451
		c0.311,0.744,0.453,1.469,1.09,1.914c0.203,0.143,0.394,0.308,0.584,0.465c0.176,0.146,0.384,0.236,0.414,0.531
		c0.061,0.602,0.028,1.256,0.66,1.639c0.068,0.041,0.096,0.148,0.191,0.307c-0.293-0.201-0.505-0.348-0.721-0.496
		c-0.193,0.551-0.195,1.153-0.008,1.76c0.377,1.221,1,2.287,1.859,3.246c0.813,0.905,1.801,1.43,2.973,1.612
		c1.256,0.194,2.465,0.046,3.701-0.34c1.592-0.498,2.938-1.3,4.071-2.501c0.562-0.594,0.89-1.268,0.804-2.104
		c-0.084-0.82-0.402-1.574-0.945-2.152c-0.393-0.416-0.974-0.678-1.504-0.936c-0.506-0.242-1.056-0.389-1.584-0.578
		c0.746-0.053,1.381,0.246,1.992,0.641c0.19-2.672-1.594-4.26-3.408-5.082c-0.431,0.439-0.857,0.88-1.65,0.891
		c0.404-0.177,0.712-0.311,1.018-0.445c-0.01-0.018-0.02-0.035-0.027-0.054c-0.143,0.034-0.284,0.067-0.428,0.101
		c-0.01-0.041-0.018-0.08-0.027-0.121c0.091-0.028,0.183-0.051,0.271-0.086c0.456-0.176,0.893-0.471,0.985-0.932
		c0.146-0.715-0.063-1.441-0.533-1.99c-0.688-0.808-1.478-1.522-2.505-1.906C200.683,120.052,200.763,120.515,200.841,120.977z
		 M213.449,118.691c0.26-0.234,0.53-0.468,0.788-0.712c0.862-0.815,1.53-1.75,1.569-2.981c0.013-0.377-0.057-0.856-0.281-1.129
		c-0.712-0.854-1.693-1.037-2.727-0.736c-0.588,0.17-1.125,0.505-1.694,0.742c-1.063,0.441-1.99,1.08-2.715,1.969
		c-0.597,0.73-0.761,1.623-0.488,2.512c0.315,1.032,1.629,1.52,2.545,1.469C211.559,119.761,212.498,119.229,213.449,118.691z
		 M211.276,120.042c-0.305,0.281-0.597,0.498-0.823,0.77c-0.642,0.771-0.918,1.667-0.58,2.631c0.354,1.01,1.244,1.506,2.367,1.525
		c0.645,0.011,1.234-0.184,1.848-0.328c1.672-0.395,2.916-1.331,3.746-2.811c0.271-0.486,0.391-1.07,0.152-1.59
		c-0.336-0.734-0.927-1.209-1.764-1.345C214.393,118.599,212.794,119.223,211.276,120.042z M216.623,129.272
		c0.979-0.681,1.512-1.3,1.851-2.079c0.435-0.999,0.063-2.417-1.241-2.699c-0.656-0.144-1.275-0.121-1.902,0.047
		c-1.213,0.324-2.418,0.676-3.443,1.453c-0.575,0.438-1.045,1.782-0.784,2.42c0.416,1.022,1.265,1.545,2.298,1.707
		C214.712,130.326,215.833,129.757,216.623,129.272z M209.188,114.171c0.159-0.151,0.368-0.361,0.591-0.557
		c0.771-0.672,1.32-1.496,1.622-2.466c0.16-0.513,0.203-1.062-0.118-1.548c-0.488-0.744-1.476-1.045-2.447-0.766
		c-1.065,0.309-2.016,0.795-2.836,1.574s-1.523,1.584-1.67,2.771c-0.102,0.827,0.213,1.321,0.945,1.622
		C206.653,115.369,207.921,114.975,209.188,114.171z M200.529,109.548c-1.037,0.748-1.838,1.627-1.923,2.996
		c-0.04,0.636,0.144,1.263,0.601,1.465c1,0.441,1.987,0.48,2.951-0.159c0.973-0.646,1.723-1.487,2.283-2.493
		c0.232-0.417,0.43-0.874,0.537-1.337c0.18-0.778-0.175-1.249-0.979-1.372C202.716,108.451,201.572,108.812,200.529,109.548z
		 M218.783,121.007c0.041,0.027,0.079,0.054,0.119,0.08c0.333-0.239,0.68-0.465,1.001-0.721c0.722-0.576,1.444-1.15,2.142-1.756
		c1.063-0.922,2.121-1.852,3.146-2.814c0.423-0.399,0.767-0.885,1.113-1.355c0.073-0.1,0.069-0.344-0.007-0.439
		c-0.075-0.098-0.285-0.133-0.43-0.119c-0.15,0.019-0.3,0.115-0.436,0.201c-0.725,0.476-1.441,0.963-2.168,1.438
		c-1.133,0.74-2.254,1.492-3.403,2.204c-0.601,0.371-1.247,0.668-1.868,1.002c-0.056,0.028-0.099,0.082-0.146,0.124
		c0.044,0.05,0.082,0.137,0.132,0.145c0.274,0.041,0.554,0.063,0.854,0.094C219.098,119.697,219.173,120.348,218.783,121.007z
		 M212.335,109.244c-0.115,0.164-0.19,0.268-0.264,0.371c0.021,0.02,0.043,0.039,0.064,0.059c0.102-0.082,0.201-0.161,0.304-0.242
		c0.017,0.02,0.031,0.039,0.047,0.059c-0.112,0.123-0.225,0.246-0.338,0.369c0.403-0.23,0.772-0.492,1.14-0.759
		c1.002-0.729,1.826-1.632,2.571-2.613c0.726-0.959,1.453-1.918,2.147-2.899c0.104-0.148,0.039-0.418,0.051-0.631
		c-0.188,0.018-0.436-0.035-0.553,0.064c-0.852,0.713-1.678,1.456-2.51,2.193c-0.354,0.316-0.68,0.664-1.052,0.955
		c-0.524,0.416-1.083,0.787-1.621,1.187c-0.347,0.255-0.681,0.526-1.114,0.86c0.604,0.023,0.883,0.324,0.763,0.686
		c0.106-0.054,0.2-0.102,0.356-0.178c-0.123,0.23-0.211,0.396-0.295,0.559C212.108,109.273,212.187,109.263,212.335,109.244z
		 M220.021,126.328c0.023,0.037,0.047,0.071,0.07,0.107c1.232-0.764,2.471-1.518,3.693-2.294c0.297-0.188,0.562-0.442,0.814-0.69
		c0.505-0.494,1.006-0.992,1.48-1.516c0.123-0.139,0.139-0.373,0.205-0.563c-0.035-0.031-0.07-0.06-0.107-0.088
		c-0.246,0.08-0.51,0.127-0.738,0.244c-0.826,0.426-1.624,0.915-2.471,1.303c-1.213,0.558-2.459,1.043-3.686,1.571
		c-0.099,0.042-0.154,0.181-0.23,0.274c0.023,0.031,0.051,0.066,0.072,0.098c0.528-0.223,0.596,0.262,0.668,0.498
		c0.086,0.275-0.039,0.616-0.072,0.922c0.189-0.078,0.348-0.146,0.506-0.211c0.016,0.025,0.029,0.051,0.044,0.075
		C220.188,126.148,220.106,126.24,220.021,126.328z M205.554,109.25c0.256-0.248,0.549-0.479,0.773-0.764
		c0.536-0.68,1.039-1.385,1.555-2.08c0.631-0.848,1.266-1.691,1.892-2.541c0.149-0.205,0.312-0.439,0.036-0.668
		c-0.273-0.227-0.462,0.01-0.625,0.168c-0.422,0.41-0.821,0.844-1.229,1.27c-0.619,0.648-1.229,1.306-1.861,1.941
		c-0.41,0.411-0.854,0.789-1.301,1.199c0.328,0.15,0.795,0.092,0.895,0.4C205.783,108.46,205.619,108.828,205.554,109.25z
		 M189.527,120.875c-0.152,0.125-0.304,0.248-0.455,0.371c0.02,0.023,0.038,0.047,0.057,0.069c0.164-0.058,0.326-0.114,0.49-0.171
		c0.006,0.021,0.014,0.042,0.021,0.063c-0.118,0.115-0.237,0.231-0.354,0.346c0.016,0.02,0.031,0.039,0.045,0.058
		c0.164-0.052,0.328-0.104,0.489-0.155c0.007,0.021,0.015,0.041,0.021,0.063c-0.116,0.109-0.233,0.217-0.351,0.326
		C190.134,121.658,190.136,121.583,189.527,120.875z M188.58,119.333c-0.035,0.041-0.072,0.082-0.106,0.123
		c0.071,0.053,0.146,0.108,0.218,0.162c-0.094,0.035-0.186,0.092-0.281,0.102c-0.123,0.013-0.246-0.012-0.414-0.024
		c0.141,0.196,0.236,0.331,0.334,0.466c0.021-0.009,0.043-0.02,0.064-0.029c-0.012-0.084-0.021-0.17-0.021-0.161
		c0.188-0.104,0.346-0.193,0.502-0.281C188.775,119.572,188.678,119.453,188.58,119.333z M189.076,120.976
		c-0.062-0.188-0.125-0.323-0.142-0.463c-0.003-0.041,0.174-0.152,0.204-0.133c0.124,0.08,0.22,0.201,0.326,0.305
		c0.033-0.018,0.068-0.035,0.1-0.053c-0.104-0.146-0.208-0.293-0.313-0.438c-0.176,0.128-0.426,0.224-0.502,0.394
		C188.644,120.826,188.8,120.994,189.076,120.976z"/>
	<path fill="#C41D17" stroke="#000000" stroke-miterlimit="10" d="M222.673,108.276c-0.571,0.632-1.096,1.313-1.723,1.882
		c-1.136,1.026-2.338,1.98-3.502,2.973c-0.349,0.295-0.674,0.617-1.094,0.894c0.057-0.183,0.113-0.366,0.18-0.575
		c-0.08-0.025-0.209-0.068-0.367-0.119c0.037-0.106,0.076-0.211,0.111-0.313c-0.267,0.009-0.471-0.061-0.359-0.402
		c-0.228-0.044-0.457-0.087-0.647-0.123c1.44-1.004,2.86-1.97,4.252-2.973c0.651-0.469,1.245-1.018,1.878-1.512
		c0.229-0.18,0.497-0.313,0.748-0.467C222.324,107.787,222.5,108.033,222.673,108.276z"/>
	<path fill="#C41D17" stroke="#000000" stroke-miterlimit="10" d="M200.841,120.977c-0.079-0.461-0.159-0.925-0.239-1.386
		c1.026,0.383,1.817,1.099,2.504,1.906c0.47,0.549,0.681,1.275,0.533,1.99c-0.095,0.461-0.529,0.756-0.986,0.932
		c-0.088,0.035-0.18,0.059-0.271,0.086c0.011,0.041,0.019,0.08,0.027,0.121c0.144-0.033,0.285-0.066,0.428-0.101
		c0.009,0.019,0.019,0.036,0.027,0.054c-0.306,0.135-0.611,0.269-1.018,0.445c0.793-0.011,1.221-0.451,1.65-0.891
		c1.814,0.822,3.6,2.41,3.407,5.082c-0.61-0.396-1.245-0.692-1.991-0.641c0.528,0.189,1.078,0.336,1.584,0.577
		c0.53,0.257,1.111,0.521,1.504,0.937c0.543,0.578,0.86,1.334,0.944,2.152c0.087,0.836-0.241,1.51-0.803,2.104
		c-1.134,1.201-2.479,2.003-4.072,2.5c-1.233,0.387-2.444,0.537-3.7,0.341c-1.173-0.183-2.16-0.707-2.973-1.612
		c-0.859-0.959-1.482-2.025-1.859-3.246c-0.188-0.607-0.186-1.209,0.008-1.76c0.216,0.148,0.428,0.293,0.721,0.496
		c-0.096-0.158-0.123-0.266-0.191-0.307c-0.632-0.383-0.6-1.037-0.66-1.639c-0.031-0.295-0.237-0.386-0.414-0.531
		c-0.19-0.158-0.381-0.322-0.584-0.465c-0.638-0.445-0.779-1.17-1.09-1.914c0.303,0.178,0.537,0.313,0.771,0.451
		c0.02-0.02,0.041-0.039,0.061-0.06c-0.166-0.155-0.315-0.339-0.506-0.459c-1.605-1.026-2.154-2.582-2.208-4.384
		c-0.049-1.711,0.552-3.225,1.767-4.364c1.502-1.405,3.218-1.714,5.156-0.521c0.435,0.268,0.844,0.59,1.215,0.94
		c0.457,0.435,0.606,1.035,0.75,1.631c0.127,0.521,0.287,1.032,0.431,1.548C200.792,120.988,200.819,120.982,200.841,120.977z
		 M204.694,128.595c-0.01-0.047-0.021-0.096-0.032-0.143c-0.425,0.063-0.849,0.152-1.275,0.182
		c-0.777,0.056-1.374,0.664-2.168,0.681c-0.182,0.003-0.363,0.183-0.538,0.29c-0.485,0.296-0.995,0.568-1.265,1.166
		c0.44-0.262,0.842-0.49,1.232-0.736c1.127-0.707,2.344-1.148,3.674-1.262C204.451,128.759,204.571,128.656,204.694,128.595z
		 M200.236,122.664c-0.045-0.037-0.091-0.076-0.135-0.113c-0.105,0.107-0.214,0.216-0.32,0.324
		c-0.013-0.013-0.025-0.023-0.037-0.037c0.061-0.112,0.121-0.228,0.24-0.453c-0.896,0.729-1.695,1.38-2.495,2.031
		c-0.01,0.008-0.026,0.025-0.022,0.031c0.005,0.012,0.021,0.02,0.043,0.036c0.101-0.06,0.205-0.12,0.379-0.222
		c-0.096,0.135-0.141,0.199-0.118,0.166c0.31-0.221,0.704-0.502,1.097-0.785c0.018,0.025,0.036,0.049,0.055,0.072
		c-0.213,0.154-0.428,0.307-0.642,0.459c0.029,0.037,0.06,0.072,0.089,0.106C198.994,123.742,199.613,123.203,200.236,122.664z"/>
	<path fill="#C41D17" stroke="#000000" stroke-miterlimit="10" d="M213.449,118.691c-0.951,0.539-1.891,1.07-3.003,1.131
		c-0.916,0.051-2.229-0.438-2.545-1.468c-0.271-0.89-0.106-1.78,0.488-2.511c0.726-0.889,1.651-1.528,2.715-1.971
		c0.569-0.236,1.106-0.57,1.694-0.742c1.031-0.301,2.015-0.116,2.727,0.738c0.225,0.271,0.294,0.75,0.281,1.129
		c-0.039,1.231-0.707,2.166-1.569,2.98C213.979,118.223,213.708,118.457,213.449,118.691z"/>
	<path fill="#C41D17" stroke="#000000" stroke-miterlimit="10" d="M211.276,120.042c1.519-0.819,3.116-1.443,4.946-1.147
		c0.837,0.136,1.428,0.608,1.764,1.345c0.237,0.52,0.119,1.104-0.152,1.59c-0.83,1.479-2.074,2.418-3.746,2.811
		c-0.612,0.145-1.203,0.339-1.848,0.328c-1.123-0.02-2.015-0.516-2.367-1.525c-0.338-0.964-0.062-1.859,0.58-2.631
		C210.68,120.541,210.972,120.324,211.276,120.042z"/>
	<path fill="#C41D17" stroke="#000000" stroke-miterlimit="10" d="M216.623,129.272c-0.789,0.483-1.91,1.054-3.225,0.849
		c-1.033-0.162-1.882-0.685-2.298-1.709c-0.261-0.637,0.209-1.979,0.784-2.418c1.025-0.779,2.229-1.129,3.443-1.453
		c0.627-0.168,1.245-0.191,1.902-0.049c1.305,0.283,1.676,1.702,1.241,2.7C218.134,127.973,217.602,128.593,216.623,129.272z"/>
	<path fill="#C41D17" stroke="#000000" stroke-miterlimit="10" d="M209.188,114.171c-1.267,0.803-2.534,1.197-3.913,0.631
		c-0.732-0.301-1.047-0.795-0.945-1.622c0.146-1.187,0.85-1.991,1.67-2.771s1.771-1.267,2.836-1.574
		c0.973-0.279,1.959,0.021,2.447,0.766c0.321,0.486,0.278,1.035,0.118,1.548c-0.302,0.97-0.851,1.794-1.622,2.466
		C209.556,113.81,209.347,114.021,209.188,114.171z"/>
	<path fill="#C41D17" stroke="#000000" stroke-miterlimit="10" d="M200.529,109.548c1.043-0.736,2.188-1.1,3.471-0.901
		c0.804,0.123,1.158,0.595,0.979,1.372c-0.107,0.464-0.305,0.92-0.537,1.337c-0.563,1.006-1.311,1.849-2.283,2.493
		c-0.964,0.639-1.949,0.602-2.951,0.158c-0.457-0.201-0.64-0.828-0.601-1.465C198.691,111.175,199.494,110.296,200.529,109.548z"/>
	<path fill="#C41D17" stroke="#000000" stroke-miterlimit="10" d="M218.783,121.007c0.391-0.659,0.314-1.312,0.051-1.918
		c-0.301-0.03-0.58-0.053-0.854-0.094c-0.05-0.008-0.088-0.095-0.132-0.145c0.048-0.042,0.091-0.096,0.146-0.124
		c0.621-0.333,1.269-0.631,1.868-1.002c1.149-0.712,2.271-1.463,3.403-2.204c0.727-0.475,1.443-0.962,2.168-1.438
		c0.136-0.086,0.283-0.184,0.436-0.201c0.145-0.016,0.354,0.021,0.43,0.119c0.076,0.096,0.08,0.34,0.007,0.439
		c-0.349,0.471-0.69,0.956-1.113,1.355c-1.024,0.963-2.082,1.893-3.146,2.814c-0.696,0.605-1.42,1.18-2.142,1.756
		c-0.321,0.256-0.668,0.48-1.001,0.721C218.862,121.061,218.824,121.035,218.783,121.007z"/>
	<path fill="#C41D17" stroke="#000000" stroke-miterlimit="10" d="M212.335,109.244c-0.148,0.02-0.228,0.029-0.301,0.039
		c0.084-0.16,0.172-0.328,0.293-0.559c-0.154,0.076-0.248,0.124-0.355,0.178c0.121-0.361-0.159-0.662-0.762-0.686
		c0.434-0.334,0.768-0.605,1.113-0.86c0.538-0.399,1.098-0.771,1.621-1.187c0.372-0.291,0.698-0.639,1.053-0.955
		c0.83-0.737,1.657-1.48,2.508-2.193c0.119-0.102,0.367-0.048,0.554-0.064c-0.013,0.213,0.055,0.482-0.05,0.631
		c-0.695,0.981-1.424,1.94-2.148,2.899c-0.744,0.981-1.57,1.886-2.57,2.613c-0.367,0.269-0.736,0.528-1.141,0.759
		c0.113-0.124,0.227-0.247,0.338-0.369c-0.016-0.02-0.031-0.039-0.047-0.059c-0.102,0.082-0.201,0.162-0.304,0.242
		c-0.021-0.021-0.043-0.039-0.063-0.059C212.145,109.511,212.22,109.408,212.335,109.244z"/>
	<path fill="#C41D17" stroke="#000000" stroke-miterlimit="10" d="M220.021,126.328c0.085-0.088,0.167-0.18,0.25-0.27
		c-0.014-0.025-0.027-0.051-0.044-0.075c-0.158,0.065-0.315,0.132-0.506,0.211c0.034-0.306,0.157-0.647,0.073-0.922
		c-0.073-0.235-0.141-0.722-0.668-0.498c-0.022-0.032-0.049-0.065-0.073-0.099c0.075-0.092,0.133-0.23,0.231-0.273
		c1.227-0.529,2.473-1.014,3.686-1.57c0.846-0.389,1.644-0.879,2.47-1.304c0.229-0.116,0.492-0.165,0.738-0.245
		c0.036,0.029,0.071,0.059,0.106,0.088c-0.064,0.19-0.082,0.426-0.205,0.563c-0.475,0.522-0.976,1.021-1.479,1.515
		c-0.254,0.25-0.519,0.502-0.815,0.691c-1.223,0.777-2.459,1.531-3.691,2.294C220.068,126.399,220.044,126.365,220.021,126.328z"/>
	<path fill="#C41D17" stroke="#000000" stroke-miterlimit="10" d="M205.554,109.25c0.064-0.422,0.229-0.791,0.135-1.072
		c-0.1-0.311-0.564-0.252-0.895-0.401c0.447-0.409,0.891-0.788,1.301-1.198c0.633-0.637,1.242-1.293,1.861-1.941
		c0.406-0.426,0.807-0.859,1.229-1.27c0.163-0.16,0.352-0.396,0.625-0.168c0.275,0.229,0.113,0.461-0.036,0.666
		c-0.626,0.852-1.261,1.695-1.892,2.543c-0.516,0.693-1.019,1.399-1.555,2.079C206.103,108.772,205.81,109.003,205.554,109.25z"/>
	<path display="none" fill="#C41D17" stroke="#000000" stroke-miterlimit="10" d="M204.694,128.595
		c-0.123,0.061-0.243,0.166-0.373,0.177c-1.331,0.112-2.547,0.556-3.674,1.263c-0.392,0.244-0.792,0.473-1.231,0.735
		c0.269-0.599,0.778-0.87,1.264-1.166c0.175-0.106,0.357-0.287,0.537-0.29c0.795-0.016,1.392-0.625,2.168-0.68
		c0.429-0.03,0.853-0.12,1.277-0.182C204.673,128.5,204.685,128.546,204.694,128.595z"/>
	<path fill="#C41D17" stroke="#000000" stroke-miterlimit="10" d="M200.236,122.664c-0.623,0.539-1.244,1.078-1.865,1.619
		c-0.029-0.035-0.061-0.072-0.088-0.107c0.213-0.152,0.426-0.305,0.641-0.459c-0.019-0.023-0.037-0.047-0.055-0.072
		c-0.394,0.281-0.787,0.564-1.097,0.786c-0.022,0.032,0.022-0.033,0.118-0.167c-0.174,0.102-0.279,0.162-0.379,0.222
		c-0.022-0.017-0.039-0.024-0.043-0.036c-0.004-0.006,0.014-0.023,0.023-0.031c0.799-0.651,1.598-1.301,2.494-2.031
		c-0.119,0.227-0.181,0.341-0.24,0.453c0.012,0.013,0.023,0.023,0.037,0.037c0.106-0.108,0.213-0.215,0.32-0.323
		C200.146,122.587,200.191,122.626,200.236,122.664z"/>
</g>
<path fill="#C41D17" stroke="#000000" stroke-miterlimit="10" d="M46.458,21.444c1.805-2.483,2.798-5.069,2.373-8.126
	c-0.201-1.435,0.331-2.772,1.896-3.282c1.164-0.381,2.187-0.176,2.921,0.975c0.906,1.423,0.5,2.78-0.471,3.785
	c-3.636,3.753-3.787,8.854-5.351,13.4c-0.635,1.844,0.288,2.861,2.206,2.951c2.403,0.114,4.761,0.047,6.708-1.688
	c0.463-0.415,0.936-0.843,1.471-1.152c1.353-0.781,2.754-1.156,4.244-0.271c0.766,0.454,1.013,1.127,0.781,1.905
	c-0.565,1.903-2.245,2.481-3.842,2.342c-2.556-0.225-4.507,1.072-6.73,1.82c-5.538,1.867-8.578,5.747-10.002,11.181
	c-0.188,0.726-0.367,1.464-0.656,2.151c-1.008,2.423-1.859,5.331-5.177,5.045c-3.285-0.28-4.907-2.859-5.585-5.799
	c-0.413-1.786-0.26-3.713-0.258-5.578c0.002-7.034-3.713-12.592-10.27-15.303c-1.031-0.426-2.24-0.785-2.086-2.253
	c0.109-1.029,0.631-1.949,1.608-2.371c1.364-0.589,2.047,0.439,2.704,1.375c1.693,2.411,4.03,4.089,6.541,5.497
	c2.613,1.465,4.582,0.653,4.836-2.289c0.308-3.558,0.448-7.257-2.197-10.274c-0.858-0.979-1.526-2.045-0.547-3.341
	c0.843-1.111,1.968-1.556,3.3-1.117c1.594,0.523,1.943,1.73,1.626,3.276c-0.667,3.277-0.312,6.472,0.987,9.539
	c0.678,1.599,1.331,3.41,3.454,3.498c1.853,0.077,2.891-1.284,3.756-2.706C45.346,23.571,45.909,22.449,46.458,21.444z"/>
<path d="M-21.187,339.541c0.097,0.49,0.194,0.981,0.303,1.535c-0.374,0.006-0.703,0.01-1.102,0.018
	c0.252-0.555,0.483-1.059,0.713-1.563C-21.244,339.533-21.215,339.537-21.187,339.541z"/>
<path d="M-21.722,357.181c-0.141,0.414-0.252,0.738-0.399,1.17c-0.096-0.387-0.166-0.666-0.243-0.975
	C-22.168,357.318-21.988,357.263-21.722,357.181z"/>
<path d="M-30.91,351.156c0.151-0.363,0.26-0.623,0.387-0.928c0.187,0.119,0.343,0.219,0.564,0.359
	C-30.275,350.777-30.543,350.937-30.91,351.156z"/>
<path d="M-12.918,351.876c-0.221-0.176-0.442-0.354-0.659-0.525c0.142-0.15,0.274-0.292,0.451-0.48
	c0.101,0.364,0.185,0.668,0.268,0.971C-12.878,351.853-12.898,351.865-12.918,351.876z"/>
<path d="M250.935,401.734c0.146-0.21,0.26-0.374,0.411-0.593c-0.009,0.231-0.015,0.399-0.021,0.586
	C251.207,401.729,251.097,401.731,250.935,401.734z"/>
<path d="M245.142,403.3c0.096,0.135,0.191,0.27,0.285,0.4c-0.104,0.063-0.201,0.119-0.33,0.197c0.002-0.221,0.003-0.404,0.005-0.588
	C245.115,403.307,245.128,403.303,245.142,403.3z"/>
<g>
	<path fill="none" stroke="#C41D17" stroke-width="2" stroke-miterlimit="10" d="M337.177,37.292
		c1.434,2.865,2.867,5.73,4.646,9.287c-2.789-1.199-5.217-2.242-7.646-3.287"/>
	<path fill="none" stroke="#C41D17" stroke-width="2" stroke-miterlimit="10" d="M355.177,32.291c-0.5,2.833-1,5.667-1.5,8.5"/>
	<path fill="none" stroke="#C41D17" stroke-width="2" stroke-miterlimit="10" d="M349.177,35.291
		c1.438,2.153,2.875,4.305,4.826,7.231c-0.42,1.787-1.123,4.777-1.826,7.77"/>
	<path fill="none" stroke="#C41D17" stroke-width="2" stroke-miterlimit="10" d="M341.677,46.792c1,2,2,4,3,6"/>
	<path fill="none" stroke="#C41D17" stroke-width="2" stroke-miterlimit="10" d="M343.677,39.792c-0.334,1.666-0.666,3.332-1,5"/>
	<path fill="none" stroke="#C41D17" stroke-width="2" stroke-miterlimit="10" d="M360.177,37.292c-1.5,1.166-3,2.332-4.5,3.5"/>
</g>
<path fill="none" stroke="#C41D17" stroke-width="2" stroke-miterlimit="10" d="M329,11.221c1.434,2.865,2.867,5.73,4.648,9.287
	c-2.789-1.199-5.221-2.242-7.648-3.287"/>
<path fill="none" stroke="#C41D17" stroke-width="2" stroke-miterlimit="10" d="M347,6.221c-0.5,2.833-1,5.667-1.5,8.5"/>
<path fill="none" stroke="#C41D17" stroke-width="2" stroke-miterlimit="10" d="M341,9.221c1.439,2.153,2.875,4.305,4.828,7.231
	c-0.42,1.787-1.123,4.777-1.828,7.77"/>
<path fill="none" stroke="#C41D17" stroke-width="2" stroke-miterlimit="10" d="M333.5,20.721c1,2,2,4,3,6"/>
<path fill="none" stroke="#C41D17" stroke-width="2" stroke-miterlimit="10" d="M335.5,13.721c-0.332,1.666-0.666,3.332-1,5"/>
<path fill="none" stroke="#C41D17" stroke-width="2" stroke-miterlimit="10" d="M352,11.221c-1.5,1.166-3,2.332-4.5,3.5"/>
</svg>
